<svg width="345" height="345" viewBox="0 0 345 345" fill="none" xmlns="http://www.w3.org/2000/svg">
<path d="M48 173.5C48 168.253 52.2533 164 57.5 164H288.5C293.747 164 298 168.253 298 173.5C298 178.747 293.747 183 288.5 183H57.5C52.2533 183 48 178.747 48 173.5Z" fill="black"/>
<path d="M48 173.5C48 168.253 52.2533 164 57.5 164H288.5C293.747 164 298 168.253 298 173.5C298 178.747 293.747 183 288.5 183H57.5C52.2533 183 48 178.747 48 173.5Z" fill="black"/>
<path d="M172.5 48C177.747 48 182 52.2533 182 57.5V288.5C182 293.747 177.747 298 172.5 298C167.253 298 163 293.747 163 288.5V57.5C163 52.2533 167.253 48 172.5 48Z" fill="black"/>
<path d="M172.5 48C177.747 48 182 52.2533 182 57.5V288.5C182 293.747 177.747 298 172.5 298C167.253 298 163 293.747 163 288.5V57.5C163 52.2533 167.253 48 172.5 48Z" fill="black"/>
</svg>
